<mxfile host="app.diagrams.net" modified="2024-04-27T06:40:57.764Z" agent="Mozilla/5.0 (Windows NT 10.0; Win64; x64) AppleWebKit/537.36 (KHTML, like Gecko) Chrome/124.0.0.0 Safari/537.36 Edg/124.0.0.0" version="24.3.1" etag="nLYNLBc3evhVsilAYhOu" type="github">
  <diagram name="Page-1" id="YG0Z59NHLiRKurQfE7-C">
    <mxGraphModel>
      <root>
        <mxCell id="0" />
        <mxCell id="1" parent="0" />
      </root>
    </mxGraphModel>
  </diagram>
</mxfile>
